<?xml version="1.0" encoding="utf-8"?>
<!-- Generator: Adobe Illustrator 13.0.0, SVG Export Plug-In . SVG Version: 6.00 Build 14948)  -->
<!DOCTYPE svg PUBLIC "-//W3C//DTD SVG 1.1//EN" "http://www.w3.org/Graphics/SVG/1.1/DTD/svg11.dtd">
<svg version="1.1" id="Layer_1" xmlns="http://www.w3.org/2000/svg" xmlns:xlink="http://www.w3.org/1999/xlink" x="0px" y="0px"
	 width="420.732px" height="473.67px" viewBox="0 0 420.732 473.67" style="enable-background:new 0 0 420.732 473.67;"
	 xml:space="preserve">
<style type="text/css">
<![CDATA[
	.st0{fill-rule:evenodd;clip-rule:evenodd;}
]]>
</style>
<path class="st0" d="M0,272.08c0,8.9,4.59,20.55,9.38,25.92c2.07,2.33,13.47-13.1,16.33-11.33c2.7,1.67-8.02,15.11-4.67,16.33
	c2.71,0.99,12.56-14.06,15.67-13.33c2.56,0.6-6.14,15.22-3.33,15.67c3.24,0.51,13.78-12.99,17.33-12.67
	c3.24,0.29-8.15,14.85-4.67,15c3.26,0.14,10.21-11.03,13.67-11c1.97,0.02-5.03,12.01-3,12c2.2-0.01,8.74-9.95,11-10
	c3.06-0.06-3.51,11.12-0.33,11c5.98-0.22,11.68-0.45,17.33-0.7v-32.03c-13.94-11.39-22-24.84-22-39.27c0-40.87,74.19-91,154-91
	c38.89,0,75.02,18.29,103.12,41.08h0.95v0.78c3.64,2.98,7.13,6.04,10.48,9.14h60.85c0.39-5.97-0.07-11.7-1.4-17
	c-24-95-27-121.33-14.5-133.83c1.19-2.82,7.85-2.77,10.5-3.17c16.82-2.55,33.01-5.16,34-11c0.8-4.71-19.85-8.06-25-13
	c-2.69-4.03-20.56-16.05-20.56-16.05S363.65-0.04,361.71,0c-1.32,0.03,4.27,4.45,2.83,4.67c-1.26,0.19-6.97-2.35-8.33-2
	c-1.68,0.43,3.5,3.46,1.67,4.17c-3.34-1.17-6.07-1.79-6.5-1.67c-0.27,0.07,1.04,2.15,1.66,3.33c-0.93,0.44-5.13-1.34-6-0.83
	c-0.74,0.44,2.86,2.68,2.17,3.17c-0.62,0.44-5.92-0.65-6.5-0.17c-0.36,0.3,3.51,2.35,3.17,2.67c-0.47,0.43-2.4,0.54-2.84,1
	c-28.76,29.75,1.57,117.56-0.33,140.33c-2,24-8.48,20-36,4c-43-25-62-35-102-34C123.24,126.71,0,210.23,0,272.08z M372.71,18.67
	c0-2.76,2.46-5,5.5-5s5.5,2.24,5.5,5c0,2.76-2.46,5-5.5,5S372.71,21.43,372.71,18.67z"/>
<g>
	<path class="st0" d="M154.24,336.89c0-0.55-0.13-0.99-0.38-1.32c-0.25-0.34-0.59-0.5-1.02-0.5c0,0-13.2-3.09-11.03-0.24
		c2.17,2.86,3.26,6.34,3.26,10.45v104.94c0,0.7,0.13,1.22,0.38,1.56c0.25,0.33,0.59,0.49,1.01,0.49h6.38c0.41,0,0.74-0.17,1.01-0.51
		c0.26-0.35,0.39-0.86,0.39-1.54V336.89z M159.23,313.67c3.24,0,5.94,1.43,8.11,4.29c2.17,2.85,3.26,6.34,3.26,10.46v130.26
		c0,4.26-1.09,7.82-3.27,10.69c-2.18,2.87-4.88,4.3-8.1,4.3h-19.15c-3.24,0-5.95-1.43-8.12-4.28c-2.17-2.86-3.25-6.43-3.25-10.71
		V328.42c0-4.14,1.08-7.64,3.24-10.48c2.16-2.85,4.87-4.27,8.13-4.27H159.23z"/>
	<path class="st0" d="M190.75,389.51c2.17,2.85,3.26,6.33,3.26,10.43v50.28c0,0.71,0.12,1.23,0.38,1.56
		c0.25,0.33,0.59,0.49,1.01,0.49h6.38c0.41,0,0.74-0.17,1-0.51c0.27-0.34,0.4-0.86,0.4-1.54v-58.66c0-0.54-0.13-0.98-0.38-1.31
		c-0.26-0.34-0.59-0.5-1.02-0.5C201.78,389.75,188.58,386.66,190.75,389.51z M208.16,351.71c-1.44,0-2.63-0.61-3.57-1.84
		c-0.94-1.22-1.41-2.79-1.41-4.7v-8.32c0-0.56-0.13-0.99-0.37-1.31c-0.24-0.32-0.58-0.47-1.03-0.47c0,0-13.2-3.09-11.03-0.24
		c2.17,2.86,3.26,6.35,3.26,10.46v21c0,0.71,0.12,1.23,0.38,1.56c0.25,0.33,0.59,0.5,1.01,0.5h12.76c3.24,0,5.95,1.43,8.12,4.29
		c2.17,2.85,3.26,6.34,3.26,10.45v75.6c0,4.25-1.09,7.81-3.27,10.68c-2.18,2.87-4.88,4.3-8.11,4.3h-19.14
		c-3.24,0-5.95-1.43-8.12-4.28c-2.17-2.86-3.25-6.43-3.25-10.71V328.42c0-4.14,1.08-7.64,3.24-10.48c2.16-2.85,4.87-4.27,8.13-4.27
		h19.14c3.24,0,5.95,1.43,8.12,4.28c2.17,2.85,3.26,6.33,3.26,10.43v16.76c0,1.91-0.47,3.49-1.41,4.72s-2.13,1.85-3.58,1.85H208.16z
		"/>
	<path class="st0" d="M244.41,313.67c3.22,0,5.91,1.43,8.06,4.29c2.16,2.86,3.24,6.34,3.24,10.46v138.67c0,1.92-0.47,3.49-1.41,4.73
		c-0.94,1.23-2.13,1.85-3.58,1.85h-6.38c-1.47,0-2.67-0.61-3.6-1.83c-0.92-1.23-1.39-2.81-1.39-4.75v-130.2c0-0.56-0.12-1-0.37-1.33
		s-0.57-0.49-0.98-0.49h-6.29c-1.44,0-2.63-0.62-3.55-1.87c-0.93-1.24-1.39-2.82-1.39-4.73v-8.44c0-1.81,0.45-3.32,1.37-4.53
		c0.91-1.22,2.11-1.83,3.59-1.83H244.41z"/>
</g>
<g>
	<path class="st0" d="M122.24,251.9c2.4,0.5,4.8,0.75,7.2,0.75c6.31,0,11.49-1.51,15.53-4.53c4.16-3.65,6.25-7.29,6.25-10.94
		c0-2.01-0.76-3.96-2.28-5.85c-1.51-1.89-3.28-2.83-5.3-2.83c-4.42,0-8.9,2.89-13.44,8.68C126.41,241.96,123.76,246.86,122.24,251.9
		z M120.73,268.31c0.88,5.41,2.71,8.74,5.49,10c0.76,0.5,1.7,1.01,2.84,1.51c9.09,0.13,16.98-3.21,23.67-10l-6.63,25.28
		c-5.3,3.4-10.98,5.1-17.04,5.1c-5.3,0-10.61-1.32-15.91-3.96c-11.61-5.66-17.42-16.48-17.42-32.46c0-8.55,2.02-16.98,6.06-25.28
		c4.42-9.06,10.54-16.32,18.37-21.79c7.83-5.48,15.72-8.21,23.67-8.21c4.42,0,8.52,0.88,12.31,2.64
		c9.98,3.4,14.96,10.94,14.96,22.64c0,2.14-0.19,4.09-0.57,5.85c-1.76,7.93-6.56,14.91-14.39,20.95
		c-7.83,6.03-16.35,9.05-25.57,9.05C127.17,269.63,123.88,269.19,120.73,268.31z"/>
	<path class="st0" d="M295.89,311.71c3.41,0.12,6.12-1.01,8.14-3.4l5.69,16.79c-5.94,6.29-14.46,9.69-25.57,10.19
		c-7.32,0-13.32-2.57-17.99-7.73c-4.04-4.28-6.12-8.81-6.25-13.59c0,1.01,0.57-4.27,1.7-15.85l15.72-60.38
		c0.25-0.62,0.38-1.25,0.38-1.88c0-2.14-1.01-3.78-3.03-4.91c-0.88-0.75-1.89-1.13-3.03-1.13c-2.27,0-4.73,1.07-7.39,3.21
		c-3.91,3.14-5.93,4.78-6.06,4.9c-1.89,1.76-3.4,3.84-4.54,6.23l-14.2,53.96h-26.33l15.91-59.43c0.13-0.63,0.19-1.26,0.19-1.89
		c0-2.14-1.01-3.77-3.03-4.9c-0.76-0.76-1.77-1.14-3.03-1.14c-2.15,0-4.61,1.07-7.39,3.21c-4.54,3.65-7.26,6.04-8.14,7.17
		c-2.27,2.89-3.91,7.17-4.92,12.83h-0.19l-11.75,44.15h-26.13l23.48-89.06h26.14l-1.9,6.99c7.45-4.53,14.65-6.8,21.59-6.8
		c2.53,0,4.61,0.32,6.25,0.95c5.81,2.51,9.98,6.16,12.5,10.94c9.98-8.55,19.89-12.83,29.74-12.83c2.39,0,4.48,0.31,6.24,0.94
		c10.36,4.53,15.53,12.2,15.53,23.02c0,2.02-0.19,3.84-0.56,5.47l-15.91,60.38c-0.13,5.41,0.69,9.12,2.46,11.14
		C291.35,310.64,293.24,311.46,295.89,311.71z"/>
	<path class="st0" d="M334.15,277.37c0.76,0.63,1.83,0.94,3.22,0.94c2.27,0,4.98-0.75,8.14-2.26c3.79-1.89,6.88-5.66,9.28-11.32
		l14.58-55.67h26.14l-23.3,89.82h-26.32l1.51-5.47c-7.57,4.02-15.27,6.03-23.1,6.03c-1.64,0-3.03-0.06-4.17-0.18
		c-10.35-2.65-15.53-10.19-15.53-22.65c0-2.14,0.19-4.15,0.57-6.03l16.29-61.52h26.13l-16.28,61.52c-0.13,0.62-0.19,1.25-0.19,1.88
		C331.12,274.6,332.13,276.24,334.15,277.37z"/>
</g>
</svg>
